<?xml version="1.0" encoding="UTF-8"?>
<svg viewBox="0 0 500 150" xmlns="http://www.w3.org/2000/svg">
  <!-- Figura abstracta (persona bailando con estrellas) -->
  <g transform="translate(20,20)">
    <!-- Cuerpo principal de la figura -->
    <path d="M30,80 Q25,65 35,50 Q40,45 45,55 Q50,65 55,75 Q60,85 55,95 Q50,105 45,110 Q35,115 25,105 Q20,95 25,85 Z" 
          fill="url(#blueGradient)" />
    
    <!-- Brazo extendido -->
    <path d="M55,75 Q65,70 75,65 Q80,60 85,65 Q90,70 85,75 Q80,80 70,82 Q60,80 55,75 Z" 
          fill="url(#blueGradient)" />
    
    <!-- Estrellas -->
    <g fill="url(#starGradient)">
      <path d="M75,25 L78,32 L85,32 L80,37 L82,44 L75,39 L68,44 L70,37 L65,32 L72,32 Z" />
      <path d="M90,35 L92,40 L97,40 L94,43 L95,48 L90,45 L85,48 L86,43 L83,40 L88,40 Z" />
      <path d="M70,45 L72,49 L76,49 L74,52 L75,56 L70,54 L66,56 L67,52 L64,49 L68,49 Z" />
      <path d="M95,55 L97,59 L101,59 L99,62 L100,66 L95,64 L91,66 L92,62 L89,59 L93,59 Z" />
      <path d="M60,65 L62,69 L66,69 L64,72 L65,76 L60,74 L56,76 L57,72 L54,69 L58,69 Z" />
      <path d="M85,75 L87,79 L91,79 L89,82 L90,86 L85,84 L81,86 L82,82 L79,79 L83,79 Z" />
    </g>
  </g>
  
  <!-- Texto FARECOH -->
  <g transform="translate(140,40)" fill="url(#textGradient)">
    <text x="0" y="40" font-family="Arial Black, sans-serif" font-size="48" font-weight="bold">FARECOH</text>
  </g>
  
  <!-- Subtítulo -->
  <g transform="translate(140,85)" fill="#666">
    <text x="0" y="15" font-family="Arial, sans-serif" font-size="14" font-weight="normal">FUNDACIÓN ARTES EDUCATIVAS,</text>
    <text x="0" y="30" font-family="Arial, sans-serif" font-size="14" font-weight="normal">COROS Y ORQUESTAS DE HONDURAS</text>
  </g>
  
  <!-- Definiciones de gradientes -->
  <defs>
    <linearGradient id="blueGradient" x1="0%" y1="0%" x2="100%" y2="100%">
      <stop offset="0%" style="stop-color:#1e40af;stop-opacity:1" />
      <stop offset="100%" style="stop-color:#3b82f6;stop-opacity:1" />
    </linearGradient>
    <linearGradient id="starGradient" x1="0%" y1="0%" x2="100%" y2="100%">
      <stop offset="0%" style="stop-color:#3b82f6;stop-opacity:1" />
      <stop offset="100%" style="stop-color:#1e40af;stop-opacity:1" />
    </linearGradient>
    <linearGradient id="textGradient" x1="0%" y1="0%" x2="100%" y2="0%">
      <stop offset="0%" style="stop-color:#1e40af;stop-opacity:1" />
      <stop offset="100%" style="stop-color:#3b82f6;stop-opacity:1" />
    </linearGradient>
  </defs>
</svg>
